<svg width="108" height="108" viewBox="0 0 108 108" fill="none" xmlns="http://www.w3.org/2000/svg">
<path d="M53.75 107.5C24.1 107.5 0 83.4 0 53.75C0 24.1 24.1 0 53.75 0C83.4 0 107.5 24.1 107.5 53.75C107.5 83.4 83.4 107.5 53.75 107.5ZM53.75 7.5C28.25 7.5 7.5 28.25 7.5 53.75C7.5 79.25 28.25 100 53.75 100C79.25 100 100 79.25 100 53.75C100 28.25 79.25 7.5 53.75 7.5Z" fill="#323732"/>
<path d="M38.7492 102.5H33.7492C31.6992 102.5 29.9992 100.8 29.9992 98.75C29.9992 96.7 31.5992 95.05 33.6492 95C25.7992 68.2 25.7992 39.3 33.6492 12.5C31.5992 12.45 29.9992 10.8 29.9992 8.75C29.9992 6.7 31.6992 5 33.7492 5H38.7492C39.9492 5 41.0992 5.6 41.7992 6.55C42.4992 7.55 42.6992 8.8 42.2992 9.95C32.8992 38.2 32.8992 69.3 42.2992 97.6C42.6992 98.75 42.4992 100 41.7992 101C41.0992 101.9 39.9492 102.5 38.7492 102.5Z" fill="#323732"/>
<path d="M68.75 102.503C68.35 102.503 67.95 102.453 67.55 102.303C65.6 101.653 64.5 99.5035 65.2 97.5535C74.6 69.3035 74.6 38.2033 65.2 9.90334C64.55 7.95334 65.6 5.80334 67.55 5.15334C69.55 4.50334 71.65 5.55334 72.3 7.50334C82.25 37.3033 82.25 70.1035 72.3 99.8535C71.8 101.503 70.3 102.503 68.75 102.503Z" fill="#323732"/>
<path d="M53.75 79.7539C39.8 79.7539 25.9 77.8039 12.5 73.8539C12.45 75.8539 10.8 77.5039 8.75 77.5039C6.7 77.5039 5 75.8039 5 73.7539V68.7539C5 67.5539 5.6 66.4039 6.55 65.7039C7.55 65.0039 8.8 64.8039 9.95 65.2039C38.2 74.6039 69.35 74.6039 97.6 65.2039C98.75 64.8039 100 65.0039 101 65.7039C102 66.4039 102.55 67.5539 102.55 68.7539V73.7539C102.55 75.8039 100.85 77.5039 98.8 77.5039C96.75 77.5039 95.1 75.9039 95.05 73.8539C81.6 77.8039 67.7 79.7539 53.75 79.7539Z" fill="#323732"/>
<path d="M98.7488 42.4969C98.3488 42.4969 97.9488 42.4469 97.5488 42.2969C69.2988 32.8969 38.1489 32.8969 9.89892 42.2969C7.89892 42.9469 5.79892 41.8968 5.14892 39.9468C4.54892 37.9468 5.59892 35.8469 7.54892 35.1969C37.3489 25.2469 70.1488 25.2469 99.8988 35.1969C101.849 35.8469 102.949 37.9968 102.249 39.9468C101.799 41.4968 100.299 42.4969 98.7488 42.4969Z" fill="#323732"/>
</svg>
