<svg width="110" height="110" viewBox="0 0 110 110" fill="none" xmlns="http://www.w3.org/2000/svg">
<path d="M36.875 54.9126L48.9251 67.0126L73.0751 42.8125" stroke="#323732" stroke-width="10" stroke-linecap="round" stroke-linejoin="round"/>
<path d="M16.175 25.9125C16.175 20.6125 20.525 16.2625 25.825 16.2625H34.475C36.475 16.2625 39.275 15.2125 40.775 13.9625L48.6751 7.2125C52.1751 4.2625 57.8251 4.2625 61.2251 7.2125L69.1251 13.9625C70.6251 15.2125 73.4751 16.2625 75.4751 16.2625H83.9751C89.2751 16.2625 93.6251 20.6125 93.6251 25.9125V34.4125C93.6251 36.4125 94.6751 39.2125 95.9251 40.7125L102.675 48.6126C105.625 52.1126 105.625 57.7626 102.675 61.1626L95.9251 69.0626C94.6751 70.5626 93.6251 73.3626 93.6251 75.3626V83.8626C93.6251 89.1626 89.2751 93.5126 83.9751 93.5126H75.4751C73.4751 93.5126 70.6751 94.5626 69.1751 95.8126L61.2751 102.563C57.7751 105.513 52.1251 105.513 48.7251 102.563L40.825 95.8126C39.325 94.5626 36.475 93.5126 34.525 93.5126H25.825C20.525 93.5126 16.175 89.1626 16.175 83.8626V75.3126C16.175 73.3626 15.175 70.5126 13.925 69.0626L7.175 61.1126C4.275 57.6626 4.275 52.0626 7.175 48.6126L9.975 45.3126" stroke="#323732" stroke-width="10" stroke-linecap="round" stroke-linejoin="round"/>
</svg>
