<svg width="97" height="110" viewBox="0 0 97 110" fill="none" xmlns="http://www.w3.org/2000/svg">
<path d="M60.0502 90.3001C60.0502 93.3501 58.0497 97.3502 55.4997 98.9002L48.4502 103.45C41.9002 107.5 32.8 102.95 32.8 94.8501V68.1001C32.8 64.5501 30.8 60.0002 28.75 57.5002L9.54985 37.3C6.99985 34.75 5 30.25 5 27.2V15.5999C5 9.54995 9.5501 5 15.1001 5H81.7997C87.3497 5 91.9002 9.5499 91.9002 15.0999V26.2C91.9002 30.25 89.3502 35.3 86.8502 37.8" stroke="#323732" stroke-width="10" stroke-miterlimit="10" stroke-linecap="round" stroke-linejoin="round"/>
<path d="M68.8008 77.5469C77.6373 77.5469 84.8008 70.3839 84.8008 61.5474C84.8008 52.7104 77.6373 45.5469 68.8008 45.5469C59.9643 45.5469 52.8008 52.7104 52.8008 61.5474C52.8008 70.3839 59.9643 77.5469 68.8008 77.5469Z" stroke="#323732" stroke-width="10" stroke-linecap="round" stroke-linejoin="round"/>
<path d="M87.8008 80.5469L82.8008 75.5469" stroke="#323732" stroke-width="10" stroke-linecap="round" stroke-linejoin="round"/>
</svg>
