<svg width="118" height="109" viewBox="0 0 118 109" fill="none" xmlns="http://www.w3.org/2000/svg">
<path d="M34.9008 32.95C34.9008 34.05 33.9508 35 32.8508 34.85C31.7508 34.85 30.8008 33.9 30.8008 32.8C30.8008 31.7 31.7508 30.75 32.8508 30.75C33.88 30.75 34.9008 31.7378 34.9008 32.8" stroke="#323732" stroke-width="10" stroke-linecap="round" stroke-linejoin="round"/>
<path d="M112.35 63.1002L106.95 64.3502C103.1 65.2502 100.05 68.2502 99.15 72.1502L97.9 77.5502C97.8 78.1002 96.95 78.1002 96.8 77.5502L95.55 72.1502C94.65 68.3002 91.65 65.2502 87.75 64.3502L82.35 63.1002C81.8 63.0002 81.8 62.1502 82.35 62.0002L87.75 60.7502C91.6 59.8502 94.65 56.8502 95.55 52.9502L96.8 47.5502C96.9 47.0002 97.75 47.0002 97.9 47.5502L99.15 52.9502C100.05 56.8002 103.05 59.8502 106.95 60.7502L112.35 62.0002C112.9 62.1002 112.9 62.9502 112.35 63.1002Z" stroke="#323732" stroke-width="10" stroke-miterlimit="10"/>
<path d="M86.7001 88.4498L76.2002 98.9498C70.3502 104.8 60.8502 104.8 55.0002 98.9498L9.4 53.3498C6.6 50.5498 5 46.6998 5 42.75V30.45C5 26.45 6.6 22.65 9.4 19.85L19.75 9.5C22.55 6.7 26.3 5.15 30.25 5.1L43.7 5C47.75 5 51.6502 6.6 54.5002 9.5L85.2501 40.8" stroke="#323732" stroke-width="10" stroke-linecap="round" stroke-linejoin="round"/>
</svg>
